<?xml version="1.0" encoding="utf-8"?>
<!-- Generator: Adobe Illustrator 23.0.1, SVG Export Plug-In . SVG Version: 6.00 Build 0)  -->
<svg version="1.1" id="Layer_1" xmlns="http://www.w3.org/2000/svg" xmlns:xlink="http://www.w3.org/1999/xlink" x="0px" y="0px"
	 viewBox="0 0 512 512" style="enable-background:new 0 0 512 512;" xml:space="preserve">
<path d="M115.7,306.3c4.2,2.1,9.3,0.4,11.4-3.8c2.1-4.2,0.4-9.3-3.7-11.5c-1.2-0.6-30.5-16.2-38.1-62.1c-0.6-3.8-3.7-6.7-7.5-7.1
	c-3.9-0.4-7.4,1.8-8.8,5.3C50.4,273.5,85.3,326.8,86.8,329c1.6,2.5,4.4,3.8,7.1,3.8c1.6,0,3.3-0.5,4.7-1.4c3.9-2.6,5-7.9,2.4-11.8
	c-0.2-0.3-14.7-22.4-19.1-48.4C95.9,296.1,114.6,305.7,115.7,306.3z"/>
<path d="M155.3,324.1c4.6-0.9,7.6-5.4,6.7-10c-0.9-4.6-5.4-7.6-10-6.7c-17.1,3.4-49.5,22.1-49.5,68.1c0,33.4,7,56.6,12.4,69.5
	c-18.7,3.6-29.5,15.4-29.5,32.9c0,19.8,17.9,34.1,42.7,34.1h8.5c14.1,0,22.9-10.6,23.8-11.8c2.9-3.7,2.2-9.1-1.5-12
	c-3.7-2.9-9.1-2.2-12,1.5c0,0.1-4.4,5.3-10.3,5.3H128c-12.7,0-25.6-5.9-25.6-17.1c0-4.2,0-17.1,25.6-17.1c3.1,0,6-1.7,7.5-4.5
	c1.5-2.8,1.3-6.1-0.4-8.7c-0.2-0.2-15.7-24.6-15.7-72.1C119.5,332.2,153.9,324.4,155.3,324.1z"/>
<path d="M397.2,444.9c5.4-12.9,12.4-36.1,12.4-69.5c0-46-32.4-64.7-49.5-68.1c-4.6-0.9-9.1,2.1-10,6.7c-0.9,4.6,2.1,9.1,6.7,10
	c1.5,0.3,35.8,7.7,35.8,51.4c0,47.5-15.5,71.9-15.6,72.1c-1.7,2.6-1.9,6-0.4,8.8c1.5,2.8,4.4,4.5,7.5,4.5
	c25.6,0,25.6,12.8,25.6,17.1c0,11.2-12.9,17.1-25.6,17.1h-8.5c-5.9,0-10.2-5.1-10.4-5.3c-2.9-3.6-8.2-4.3-11.9-1.4
	c-3.7,2.9-4.4,8.3-1.5,12c0.9,1.2,9.6,11.8,23.8,11.8h8.5c24.7,0,42.7-14.4,42.7-34.1C426.7,460.3,415.9,448.5,397.2,444.9z"/>
<path d="M308.6,444.4l15.5-93.1c0.8-4.7-2.4-9-7-9.8c-4.7-0.8-9,2.4-9.8,7l-15.9,95.3h-1.3c-4.7,0-8.5,3.8-8.5,8.5s3.8,8.5,8.5,8.5
	h8.5c25.6,0,25.6,12.8,25.6,17.1c0,11.2-12.9,17.1-25.6,17.1h-8.5c-14.1,0-25.6-11.5-25.6-25.6V349.9c0-4.7-3.8-8.5-8.5-8.5
	s-8.5,3.8-8.5,8.5v119.5c0,14.1-11.5,25.6-25.6,25.6h-8.5c-12.7,0-25.6-5.9-25.6-17.1c0-4.2,0-17.1,25.6-17.1h8.5
	c4.7,0,8.5-3.8,8.5-8.5s-3.8-8.5-8.5-8.5h-1.3l-15.9-95.3c-0.8-4.6-5.2-7.8-9.8-7c-4.7,0.8-7.8,5.2-7,9.8l15.5,93.1
	c-20.7,2.9-32.7,14.9-32.7,33.5c0,19.8,17.9,34.1,42.7,34.1h8.5c13.9,0,26.3-6.7,34.1-17.1c7.8,10.4,20.2,17.1,34.1,17.1h8.5
	c24.7,0,42.7-14.4,42.7-34.1C341.3,459.3,329.3,447.2,308.6,444.4z"/>
<path d="M468.4,73c-18.8-37.5-63.9-73-93-73c-16.5,0-44.8,25.5-59.1,39.5c-16.5-14.1-36.5-22.4-60.4-22.4s-43.9,8.3-60.4,22.4
	C181.4,25.5,153,0,136.5,0c-29,0-74.2,35.5-93,73c-5.6,11.3-9.4,26.5-9.4,37.9c0,23.5,19.1,42.7,42.7,42.7
	c21.2,0,30.7-13.9,38.3-25.1c0.9-1.4,1.9-2.7,2.9-4.3L152.2,73c2.6-3.9,1.6-9.2-2.4-11.8c-3.9-2.6-9.2-1.6-11.8,2.4l-34,51
	c-1,1.4-2,2.9-3,4.3c-7.7,11.3-12.6,17.7-24.2,17.7c-14.1,0-25.6-11.5-25.6-25.6c0-8.9,3.1-21.3,7.6-30.3
	c16.8-33.6,57.5-63.5,77.7-63.5c7.3,0,28.9,16.9,47,34.5c-32.1,37.3-47,99.7-47,161.8c0,78.8,34.6,110.9,119.5,110.9
	s119.5-32.1,119.5-110.9c0-62.1-15-124.5-47-161.8c18.1-17.6,39.7-34.5,47-34.5c20.2,0,60.9,29.9,77.7,63.5c4.5,9,7.6,21.5,7.6,30.3
	c0,14.1-11.5,25.6-25.6,25.6c-12,0-16.8-6.3-24.8-18.4L374,63.5c-2.6-3.9-7.9-5-11.8-2.4c-3.9,2.6-5,7.9-2.4,11.8l36.4,54.5
	c8.1,12.2,17.2,26.1,39,26.1c23.5,0,42.7-19.1,42.7-42.7C477.9,99.5,474.1,84.3,468.4,73z M358.4,213.3c0,69.3-26.8,93.9-102.4,93.9
	s-102.4-24.6-102.4-93.9c0-89.2,31.7-179.2,102.4-179.2S358.4,124.1,358.4,213.3z"/>
<path d="M299.6,252.1c-1.5,2.8-7.2,3.9-9.5,3.9c-10,0-20.3-8.5-24-18.3c14-3.2,24-12.7,24-24.4c0-14.4-15-25.6-34.1-25.6
	s-34.1,11.2-34.1,25.6c0,11.7,10,21.2,24,24.4c-3.7,9.8-14,18.3-24,18.3c-2.4,0-8-1.1-9.6-4c-2.2-4.2-7.4-5.7-11.5-3.5
	s-5.8,7.4-3.5,11.5c6.7,12.7,22.8,13.1,24.6,13.1c13.3,0,26.1-7.6,34.1-18.4c8.1,10.8,20.9,18.4,34.1,18.4c1.8,0,18.1-0.4,24.7-13.2
	c2.2-4.2,0.5-9.3-3.7-11.5S301.8,247.9,299.6,252.1z M256,221.9c-10.3,0-17.1-5.1-17.1-8.5c0-3.4,6.8-8.5,17.1-8.5
	c10.4,0,17.1,5.1,17.1,8.5S266.4,221.9,256,221.9z"/>
<path d="M294.4,153.6c7.1,0,12.8-5.7,12.8-12.8s-5.7-12.8-12.8-12.8c-7.1,0-12.8,5.7-12.8,12.8S287.3,153.6,294.4,153.6z"/>
<path d="M217.6,153.6c7.1,0,12.8-5.7,12.8-12.8s-5.7-12.8-12.8-12.8s-12.8,5.7-12.8,12.8S210.5,153.6,217.6,153.6z"/>
</svg>
